<?xml version="1.0" encoding="UTF-8"?>
<!DOCTYPE svg PUBLIC "-//W3C//DTD SVG 1.1//EN" "http://www.w3.org/Graphics/SVG/1.1/DTD/svg11.dtd">
<!-- Creator: CorelDRAW 2020 (64-Bit) -->
<svg xmlns="http://www.w3.org/2000/svg" xml:space="preserve" width="8.26772in" height="11.6929in" version="1.1" style="shape-rendering:geometricPrecision; text-rendering:geometricPrecision; image-rendering:optimizeQuality; fill-rule:evenodd; clip-rule:evenodd"
viewBox="0 0 8267.72 11692.91"
 xmlns:xlink="http://www.w3.org/1999/xlink"
 xmlns:xodm="http://www.corel.com/coreldraw/odm/2003">
 <defs>
  <style type="text/css">
   <![CDATA[
    .fil0 {fill:#E6E7E8}
    .fil1 {fill:#7CC649}
   ]]>
  </style>
 </defs>
 <g id="Layer_x0020_1">
  <metadata id="CorelCorpID_0Corel-Layer"/>
  <g id="_2259212504064">
   <path class="fil0" d="M7183.21 7402.56l-4570.36 1454.43c0,0 -133.12,-147.91 -162.7,-690.24 -29.58,-542.33 -860.33,-3012.42 -1015.66,-3071.58 0,0 -282.28,103.53 -345.14,30.81 -62.86,-72.72 176.26,-147.91 231.72,-205.84 55.46,-57.93 76.42,-115.85 -35.75,-200.9 -112.16,-85.05 -236.65,-139.29 44.38,-267.48 281.02,-128.18 268.7,-244.05 515.21,-219.4 246.52,24.65 103.55,135.58 778.99,-51.77 675.45,-187.35 2267.94,-670.54 2849.71,-991 581.77,-320.47 438.8,-401.82 690.24,-327.87 251.44,73.95 -221.86,130.65 -38.21,219.4 183.65,88.74 129.41,70.26 -28.35,183.66 -157.77,113.39 909.6,3873.96 1085.93,4137.78zm-590.54 -823.39c0,0 -27.12,49.3 29.58,189.81 56.7,140.51 189.81,246.51 160.24,69.02 -29.58,-177.49 -283.49,-707.49 -189.82,-258.83zm179.96 522.61c12.33,-17.26 76.42,-91.21 118.33,7.4 41.91,98.61 44.37,512.75 -44.37,278.56 -88.74,-234.19 -103.54,-194.75 -73.95,-285.96zm-1464.3 596.56c0,0 1027.97,-288.42 1163.55,-374.7 135.58,-86.28 96.14,-155.3 -251.44,-61.63 -347.59,93.67 -110.94,96.14 -502.89,207.07 -391.95,110.93 -892.37,354.98 -409.21,229.26zm-1856.26 650.76c0,0 -404.29,145.44 -182.43,175.03 221.86,29.58 845.54,-335.26 1175.87,-409.21 330.33,-73.96 202.15,-162.7 -239.11,-56.7 -441.26,106 -712.43,229.26 -754.33,290.89zm-680.34 -261.31c0,0 64.09,364.84 162.7,216.93 98.61,-147.91 -1883.31,-6079.02 -162.7,-216.93zm-896.69 -2788.34c0,0 76.42,88.74 120.79,-7.4 44.37,-96.15 -202.15,-110.93 -120.79,7.4zm130.12 -786.11c0,0 147.91,-19.72 170.09,-91.21 22.19,-71.49 -170.09,-24.65 -214.47,7.4 -44.37,32.05 -133.12,125.72 44.37,83.81zm1294.82 -304.43c-39.44,-2.46 -152.84,-7.4 -115.86,56.7 36.98,64.09 192.28,19.72 115.86,-56.7zm809.19 -273.65c0,0 -354.98,101.07 -241.59,130.65 113.4,29.58 571.91,-204.61 241.59,-130.65zm1735.48 -167.62c0,0 389.49,1227.63 340.19,729.68 -49.3,-497.96 -616.28,-1715.73 -340.19,-729.68zm-3867.8 1032.91c0,0 1104.38,-389.5 1414.99,-424 310.61,-34.51 1972.11,-907.18 2120.02,-788.85 147.91,118.33 769.15,2124.96 902.27,2943.39 133.11,818.43 4.93,453.58 -1005.78,902.24 -1010.71,448.66 -2198.91,788.84 -2302.45,650.79 -103.54,-138.05 -793.77,-2198.9 -1129.05,-3283.57z"/>
   <polygon class="fil0" points="5716.76,5522.64 6293.37,5446.1 6283.16,5114.43 5816.26,4828.68 4821.24,4907.77 4410.47,5287.91 4456.4,5810.94 4854.41,6043.11 5640.21,6081.38 5724.4,6117.11 5734.6,6267.64 5665.72,6323.77 5188.61,6373.52 5095.49,6179.62 4498.48,6225.54 4515.05,6576.35 5007.46,6864.65 5987.17,6772.8 6418.34,6402.86 6359.66,5854.32 5974.41,5629.8 5173.29,5599.19 5096.75,5555.81 5089.09,5441 5165.64,5369.56 5622.33,5333.84 "/>
   <path class="fil1" d="M3928.97 4848.39l0.38 0 2.41 0 0 0.03c432.7,1.51 783.02,352.72 783.02,785.78 0,433.06 -350.32,784.27 -783.02,785.78l0 0.03 -2.41 0 -0.38 0.01 -0.68 -0.01 -1725.17 0c-176.65,0 -324.16,-124.7 -359.36,-290.85l718.72 0 460.74 0 295.44 0 610.31 0c273.35,0 494.95,-221.6 494.95,-494.95 0,-273.35 -221.6,-494.94 -494.95,-494.94l-75.89 0 -409.29 0 -718.73 0c35.19,-166.18 182.7,-290.89 359.36,-290.89l2.66 0.03 841.2 0 0.68 -0z"/>
   <path class="fil0" d="M3443.8 5710.7l62.91 0 62.91 0 718.72 0c-35.2,166.16 -182.71,290.85 -359.36,290.85l-844.54 0c-176.65,0 -324.16,-124.7 -359.36,-290.85l718.72 0zm485.18 -443.86l-1426.24 0c-176.65,0 -324.16,124.7 -359.36,290.86l718.72 0 707.52 0 359.36 0 359.36 0c-35.2,-166.16 -182.71,-290.86 -359.36,-290.86z"/>
   <rect class="fil1" x="2716.99" y="6547.6" width="704.53" height="290.86"/>
   <polygon class="fil1" points="4416.91,6547.59 4010.23,6547.59 3712.37,6547.59 4010.23,6838.45 4416.91,6838.45 4714.76,6838.45 "/>
  </g>
 </g>
</svg>
