<?xml version="1.0" encoding="UTF-8"?>
<!DOCTYPE svg PUBLIC "-//W3C//DTD SVG 1.1//EN" "http://www.w3.org/Graphics/SVG/1.1/DTD/svg11.dtd">
<!-- Creator: CorelDRAW 2020 (64-Bit) -->
<svg xmlns="http://www.w3.org/2000/svg" xml:space="preserve" width="8.26772in" height="11.6929in" version="1.1" style="shape-rendering:geometricPrecision; text-rendering:geometricPrecision; image-rendering:optimizeQuality; fill-rule:evenodd; clip-rule:evenodd"
viewBox="0 0 8267.72 11692.91"
 xmlns:xlink="http://www.w3.org/1999/xlink"
 xmlns:xodm="http://www.corel.com/coreldraw/odm/2003">
 <defs>
  <style type="text/css">
   <![CDATA[
    .fil0 {fill:none}
    .fil1 {fill:#FEFEFE}
    .fil2 {fill:#7CC649}
   ]]>
  </style>
 </defs>
 <g id="Layer_x0020_1">
  <metadata id="CorelCorpID_0Corel-Layer"/>
  <circle class="fil0" cx="-8925.79" cy="5846.67" r="6100"/>
  <g id="_1832811154720">
   <path class="fil1" d="M-3905.39 8405.9l-7517.65 2392.35c0,0 -218.97,-243.29 -267.63,-1135.35 -48.66,-892.07 -1415.13,-4955.04 -1670.63,-5052.35 0,0 -464.32,170.3 -567.72,50.67 -103.4,-119.62 289.93,-243.3 381.15,-338.58 91.23,-95.28 125.69,-190.56 -58.8,-330.46 -184.49,-139.9 -389.26,-229.11 73,-439.96 462.25,-210.85 441.98,-401.43 847.46,-360.88 405.48,40.55 170.32,223.02 1281.34,-85.15 1111.02,-308.17 3730.46,-1102.94 4687.39,-1630.07 956.94,-527.13 721.76,-660.94 1135.35,-539.3 413.59,121.65 -364.93,214.91 -62.85,360.88 302.09,145.97 212.87,115.57 -46.64,302.09 -259.51,186.52 1496.18,6372.17 1786.22,6806.11zm-971.36 -1354.37c0,0 -44.6,81.1 48.66,312.22 93.26,231.12 312.22,405.48 263.57,113.53 -48.66,-291.95 -466.3,-1163.74 -312.22,-425.75zm296.01 859.63c20.28,-28.38 125.7,-150.03 194.63,12.17 68.93,162.2 72.98,843.41 -72.99,458.2 -145.97,-385.21 -170.3,-320.33 -121.65,-470.37zm-2408.57 981.27c0,0 1690.87,-474.41 1913.89,-616.33 223.02,-141.92 158.14,-255.45 -413.59,-101.37 -571.74,154.08 -182.48,158.14 -827.19,340.6 -644.71,182.46 -1467.84,583.9 -673.1,377.1zm-3053.31 1070.43c0,0 -665,239.24 -300.06,287.89 364.93,48.66 1390.8,-551.46 1934.16,-673.1 543.35,-121.65 332.5,-267.62 -393.32,-93.26 -725.81,174.36 -1171.84,377.1 -1240.78,478.47zm-1119.07 -429.82c0,0 105.42,600.11 267.62,356.83 162.2,-243.29 -3097.81,-9999.21 -267.62,-356.83zm-1474.95 -4586.46c0,0 125.7,145.97 198.69,-12.17 72.99,-158.14 -332.5,-182.47 -198.69,12.17zm214.04 -1293.05c0,0 243.3,-32.44 279.79,-150.03 36.49,-117.59 -279.79,-40.54 -352.78,12.17 -72.98,52.71 -218.96,206.79 72.99,137.86zm2129.81 -500.75c-64.87,-4.05 -251.41,-12.17 -190.58,93.26 60.83,105.43 316.28,32.44 190.58,-93.26zm1331.01 -450.12c0,0 -583.91,166.25 -397.38,214.91 186.52,48.66 940.72,-336.55 397.38,-214.91zm2854.64 -275.72c0,0 640.67,2019.3 559.57,1200.23 -81.1,-819.08 -1013.71,-2822.16 -559.57,-1200.23zm-6362.02 1699c0,0 1816.56,-640.67 2327.47,-697.43 510.91,-56.76 3243.87,-1492.19 3487.15,-1297.55 243.29,194.64 1265.15,3495.29 1484.11,4841.49 218.96,1346.2 8.11,746.08 -1654.37,1484.07 -1662.48,737.98 -3616.93,1297.53 -3787.23,1070.46 -170.3,-227.07 -1305.65,-3616.9 -1857.14,-5401.04z"/>
   <polygon class="fil1" points="-6317.5,5313.69 -5369.07,5187.79 -5385.85,4642.24 -6153.84,4172.21 -7790.52,4302.31 -8466.18,4927.59 -8390.64,5787.91 -7735.97,6169.8 -6443.43,6232.74 -6304.94,6291.52 -6288.16,6539.12 -6401.46,6631.44 -7186.24,6713.28 -7339.42,6394.33 -8321.42,6469.87 -8294.17,7046.91 -7484.21,7521.12 -5872.72,7370.04 -5163.5,6761.53 -5260.02,5859.26 -5893.71,5489.95 -7211.45,5439.59 -7337.35,5368.25 -7349.94,5179.41 -7224.03,5061.9 -6472.84,5003.14 "/>
   <path class="fil2" d="M-9258.19 4204.63l0.63 0.01 3.96 0 0 0.05c711.74,2.47 1287.97,580.18 1287.97,1292.5 0,712.32 -576.23,1290.02 -1287.97,1292.5l0 0.05 -3.96 0 -0.63 0.01 -1.12 -0.01 -2837.69 0c-290.56,0 -533.2,-205.11 -591.1,-478.42l1182.2 0 757.85 0 485.96 0 1003.89 0c449.63,0 814.13,-364.5 814.13,-814.13 0,-449.63 -364.5,-814.12 -814.13,-814.12l-124.82 0 -673.23 0 -1182.22 0c57.89,-273.34 300.52,-478.48 591.11,-478.48l4.37 0.06 1383.67 0 1.12 -0.01z"/>
   <path class="fil1" d="M-10056.24 5623.02l103.48 0 103.48 0 1182.2 0c-57.9,273.31 -300.54,478.42 -591.1,478.42l-1389.15 0c-290.56,0 -533.2,-205.11 -591.1,-478.42l1182.2 0zm798.06 -730.09l-2345.98 0c-290.56,0 -533.2,205.11 -591.1,478.42l1182.2 0 1163.78 0 591.1 0 591.1 0c-57.9,-273.31 -300.54,-478.42 -591.1,-478.42z"/>
   <rect class="fil2" x="-11251.75" y="6999.61" width="1158.87" height="478.42"/>
   <polygon class="fil2" points="-8455.59,6999.61 -9124.53,6999.61 -9614.46,6999.61 -9124.53,7478.03 -8455.59,7478.03 -7965.66,7478.03 "/>
  </g>
 </g>
</svg>
